# xmcd
#
# Track frame offsets:
#	150
#	21318
#	50171
#	82315
#	111490
#	135470
#	174327
#	187401
#	225767
#	242433
#	267758
#
# Disc length: 4007 seconds
#
# Revision: 1
# Processed by: cddbd v1.5.2PL0 Copyright (c) Steve Scherf et al.
# Submitted via: audiograbber 1.83.01
#
DISCID=960fa50b
DTITLE=Wolfgang Haffner - Live and Real - Moin Björn
DYEAR=2002
DGENRE=Jazz
TTITLE0=The Real Thing [live]
TTITLE1=Walkabout [live]
TTITLE2=Urban Life [live]
TTITLE3=Keep Going [live]
TTITLE4=Simple Life [live]
TTITLE5=Searchin' [live]
TTITLE6=Drummer's Delight [live]
TTITLE7=Night Move [live]
TTITLE8=Jean Pierre [live]
TTITLE9=Time Out [live]
TTITLE10=Rising Sun [live]
EXTD=
EXTT0=
EXTT1=
EXTT2=
EXTT3=
EXTT4=
EXTT5=
EXTT6=
EXTT7=
EXTT8=
EXTT9=
EXTT10=
PLAYORDER=
